<!DOCTYPE svg PUBLIC "-//W3C//DTD SVG 1.1//EN" "http://www.w3.org/Graphics/SVG/1.1/DTD/svg11.dtd">
<!-- Uploaded to: SVG Repo, www.svgrepo.com, Transformed by: SVG Repo Mixer Tools -->
<svg fill="#ffffff" height="800px" width="800px" version="1.1" id="Layer_1" xmlns="http://www.w3.org/2000/svg" xmlns:xlink="http://www.w3.org/1999/xlink" viewBox="0 0 512 512" xml:space="preserve">
<g id="SVGRepo_bgCarrier" stroke-width="0"/>
<g id="SVGRepo_tracerCarrier" stroke-linecap="round" stroke-linejoin="round"/>
<g id="SVGRepo_iconCarrier"> <g> <g> <path d="M503.706,88.466H8.294C3.713,88.466,0,92.18,0,96.76V415.24c0,4.58,3.713,8.294,8.294,8.294h495.412 c4.58,0,8.294-3.713,8.294-8.294V96.76C512,92.18,508.287,88.466,503.706,88.466z M92.486,406.946l27.093-54.186H392.42 l27.093,54.186H92.486z M495.413,406.946h-57.354l-33.094-66.188c-1.404-2.81-4.276-4.585-7.418-4.585H114.454 c-3.142,0-6.013,1.775-7.418,4.585l-33.094,66.188H16.587V105.054h37.045l-16.587,22.117c-1.077,1.435-1.659,3.182-1.659,4.976 v185.78c0,4.58,3.713,8.294,8.294,8.294h106.16c4.58,0,8.294-3.713,8.294-8.294c0-4.58-3.713-8.294-8.294-8.294H51.974V134.911 l22.393-29.857h363.266l22.393,29.857v174.721H185.227c-4.58,0-8.294,3.713-8.294,8.294c0,4.58,3.713,8.294,8.294,8.294H468.32 c4.58,0,8.294-3.713,8.294-8.294v-185.78c0-1.795-0.582-3.541-1.659-4.976l-16.587-22.117h37.045V406.946z"/> </g> </g> <g> <g> <path d="M310.186,371.559h-1.106c-4.58,0-8.294,3.713-8.294,8.294c0,4.58,3.713,8.294,8.294,8.294h1.106 c4.58,0,8.294-3.713,8.294-8.294C318.479,375.273,314.766,371.559,310.186,371.559z"/> </g> </g> <g> <g> <path d="M353.313,380.406h-1.106c-4.58,0-8.294,3.713-8.294,8.294c0,4.58,3.713,8.294,8.294,8.294h1.106 c4.58,0,8.294-3.713,8.294-8.294C361.607,384.119,357.893,380.406,353.313,380.406z"/> </g> </g> <g> <g> <path d="M202.92,371.559h-1.106c-4.58,0-8.294,3.713-8.294,8.294c0,4.58,3.713,8.294,8.294,8.294h1.106 c4.58,0,8.294-3.713,8.294-8.294C211.214,375.273,207.5,371.559,202.92,371.559z"/> </g> </g> <g> <g> <path d="M159.793,380.406h-1.106c-4.58,0-8.294,3.713-8.294,8.294c0,4.58,3.713,8.294,8.294,8.294h1.106 c4.58,0,8.294-3.713,8.294-8.294C168.086,384.119,164.373,380.406,159.793,380.406z"/> </g> </g> <g> <g> <path d="M257.106,362.713H256c-4.58,0-8.294,3.713-8.294,8.294S251.42,379.3,256,379.3h1.106c4.58,0,8.294-3.713,8.294-8.294 S261.686,362.713,257.106,362.713z"/> </g> </g> <g> <g> <path d="M397.546,194.626c-28.963,0-52.527,23.564-52.527,52.527s23.564,52.527,52.527,52.527 c28.963,0,52.527-23.564,52.527-52.527S426.509,194.626,397.546,194.626z M397.546,283.093c-19.817,0-35.94-16.123-35.94-35.94 c0-19.816,16.123-35.94,35.94-35.94c19.816,0,35.94,16.123,35.94,35.94C433.486,266.97,417.363,283.093,397.546,283.093z"/> </g> </g> <g> <g> <path d="M397.546,221.166c-14.329,0-25.987,11.658-25.987,25.987c0,14.329,11.658,25.987,25.987,25.987 c14.329,0,25.987-11.658,25.987-25.987C423.533,232.824,411.876,221.166,397.546,221.166z M397.546,256.553 c-5.183,0-9.4-4.217-9.4-9.4c0-5.183,4.217-9.4,9.4-9.4s9.4,4.217,9.4,9.4C406.946,252.336,402.729,256.553,397.546,256.553z"/> </g> </g> <g> <g> <path d="M114.454,221.166c-14.329,0-25.987,11.658-25.987,25.987c0,14.329,11.658,25.987,25.987,25.987 s25.987-11.658,25.987-25.987C140.441,232.824,128.783,221.166,114.454,221.166z M114.454,256.553c-5.183,0-9.4-4.217-9.4-9.4 c0-5.183,4.216-9.4,9.4-9.4s9.4,4.217,9.4,9.4C123.853,252.336,119.637,256.553,114.454,256.553z"/> </g> </g> <g> <g> <path d="M114.454,194.626c-28.963,0-52.527,23.564-52.527,52.527s23.564,52.527,52.527,52.527s52.527-23.564,52.527-52.527 S143.416,194.626,114.454,194.626z M114.454,283.093c-19.816,0-35.94-16.123-35.94-35.94c0-19.816,16.123-35.94,35.94-35.94 c19.817,0,35.94,16.123,35.94,35.94C150.393,266.97,134.27,283.093,114.454,283.093z"/> </g> </g> <g> <g> <path d="M317.927,203.473H194.073c-4.58,0-8.294,3.713-8.294,8.294v70.773c0,4.58,3.713,8.294,8.294,8.294h123.853 c4.58,0,8.294-3.713,8.294-8.294v-70.773C326.22,207.186,322.507,203.473,317.927,203.473z M208.495,274.246h-6.127V220.06h6.127 c2.527,8.778,3.825,17.862,3.825,27.093C212.32,256.384,211.021,265.468,208.495,274.246z M244.952,274.246h-19.277 c2.149-8.832,3.232-17.905,3.232-27.093s-1.084-18.261-3.232-27.093h19.277c1.83,8.871,2.756,17.958,2.756,27.093 C247.707,256.289,246.782,265.375,244.952,274.246z M309.633,274.246h-47.8c1.626-8.904,2.46-17.978,2.46-27.093 s-0.835-18.189-2.46-27.093h47.8V274.246z"/> </g> </g> <g> <g> <path d="M362.16,132.7H149.84c-4.58,0-8.294,3.713-8.294,8.294c0,4.58,3.713,8.294,8.294,8.294h212.32 c4.58,0,8.294-3.713,8.294-8.294C370.454,136.413,366.74,132.7,362.16,132.7z"/> </g> </g> <g> <g> <path d="M362.16,168.086H149.84c-4.58,0-8.294,3.713-8.294,8.294c0,4.58,3.713,8.294,8.294,8.294h212.32 c4.58,0,8.294-3.713,8.294-8.294C370.454,171.8,366.74,168.086,362.16,168.086z"/> </g> </g> <g> <g> <path d="M130.412,172.113l-26.54-44.233c-1.498-2.498-4.199-4.026-7.112-4.026s-5.613,1.528-7.112,4.026l-26.54,44.233 c-2.358,3.928-1.084,9.022,2.844,11.379c3.93,2.358,9.024,1.083,11.379-2.844l2.892-4.82h33.072l2.892,4.82 c2.509,4.181,8.263,5.283,12.145,2.326C131.65,180.447,132.555,175.686,130.412,172.113z M90.176,159.24l6.584-10.973 l6.584,10.973H90.176z"/> </g> </g> <g> <g> <path d="M419.663,123.853c-16.769,0-30.41,13.642-30.41,30.41c0,16.769,13.642,30.41,30.41,30.41 c16.769,0,30.41-13.642,30.41-30.41C450.073,137.495,436.432,123.853,419.663,123.853z M419.663,168.086 c-7.623,0-13.823-6.2-13.823-13.823s6.2-13.823,13.823-13.823c7.622,0,13.823,6.2,13.823,13.823S427.286,168.086,419.663,168.086z "/> </g> </g> </g>
</svg>